# xmcd
#
# Track frame offsets:
#	150
#	14008
#	29129
#	45634
#	61400
#	79764
#	103340
#	124297
#	139369
#	152701
#	180094
#	199023
#
# Disc length: 3019 seconds
#
# Revision: 1
# Processed by: cddbd v1.5.2PL0 Copyright (c) Steve Scherf et al.
# Submitted via: EasyCDDAExtractor 6.0.0.1
#
DISCID=aa0bc90c
DTITLE=Michael Canfield and Rhythm Section Africa - Authnticity
DYEAR=2007
DGENRE=Pop
TTITLE0=Dance Love Sing
TTITLE1=Walk
TTITLE2=Citibeat
TTITLE3=Hey You
TTITLE4=Life ( has left its mark on me)
TTITLE5=I'm Alright
TTITLE6=One Song
TTITLE7=The No No Song
TTITLE8=Keep On Doin'
TTITLE9=If I'd Only Known
TTITLE10=GitBak2It
TTITLE11=The Alchemist
EXTD=
EXTT0=
EXTT1=
EXTT2=
EXTT3=
EXTT4=
EXTT5=
EXTT6=
EXTT7=
EXTT8=
EXTT9=
EXTT10=
EXTT11=
PLAYORDER=
